<svg width="14" height="14" viewBox="0 0 14 14" fill="none" xmlns="http://www.w3.org/2000/svg">
<path d="M1.16699 12.8332L4.33431 11.8233C5.185 12.2905 6.14204 12.5317 7.10666 12.5317C10.2664 12.5317 12.8337 9.98433 12.8337 6.8491C12.8337 3.71388 10.2664 1.1665 7.10666 1.1665C3.94694 1.1665 1.37967 3.71388 1.37967 6.8491C1.37967 7.88162 1.6607 8.89906 2.19998 9.78084L1.16699 12.8332ZM7.10666 11.3748C6.18001 11.3748 5.44173 11.0048 4.66699 10.4998L2.91699 11.0832L3.50033 9.62484C2.90788 8.81842 2.62533 7.84698 2.62533 6.85214C2.62533 4.24448 4.47862 2.33317 7.10666 2.33317C9.7347 2.33317 11.667 4.24144 11.667 6.8491C11.667 9.45677 9.7347 11.3748 7.10666 11.3748ZM8.64095 9.69794C9.07389 9.69794 9.78027 9.42662 9.95497 9.00457C10.0233 8.83123 10.0841 8.62021 10.0841 8.43179C10.0841 8.40165 10.0841 8.35643 10.0689 8.31874C10.0157 8.2283 8.77767 7.58769 8.64855 7.58769C8.56955 7.58769 8.46139 7.70466 8.34546 7.84502L8.16839 8.06141C8.05002 8.20177 7.93457 8.31874 7.84342 8.31874C7.78266 8.31874 7.72949 8.29613 7.67632 8.26599C7.25098 8.05496 6.8788 7.8364 6.52941 7.50479C6.24078 7.23347 5.92177 6.8265 5.75467 6.47227C5.73188 6.43459 5.71669 6.39691 5.71669 6.35923C5.71669 6.18588 6.24078 5.86181 6.24078 5.57542C6.24078 5.50005 5.85341 4.47507 5.80024 4.34695C5.72428 4.151 5.68631 4.09071 5.48123 4.09071C5.38249 4.09071 5.29134 4.0681 5.2002 4.0681C5.04069 4.0681 4.91916 4.12839 4.80523 4.2339C4.44065 4.57305 4.25835 4.92727 4.24316 5.42469V5.48498C4.23557 6.00501 4.49382 6.52503 4.78244 6.94708C5.43566 7.90423 6.11165 8.74079 7.19781 9.23067C7.52441 9.38141 8.27637 9.69794 8.64095 9.69794Z" fill="white"/>
</svg>
